<svg width="7" height="7" viewBox="0 0 7 7" fill="none" xmlns="http://www.w3.org/2000/svg">
<path d="M6.63528 3.41286L6.2563 2.81548C6.18374 2.70197 6.14076 2.50362 6.16042 2.36931L6.24399 1.7985C6.29609 1.44258 6.04674 1.10769 5.69082 1.05559L5.12001 0.972019C4.98906 0.952848 4.80799 0.854316 4.72004 0.752269L4.25638 0.217952C4.0537 -0.0140713 3.67428 -0.0696185 3.41023 0.0940768L2.81573 0.476907C2.70271 0.546103 2.50099 0.588596 2.37004 0.569424L1.78916 0.484383C1.43324 0.432277 1.09835 0.681632 1.04625 1.03755L0.96219 1.61172C0.943019 1.74267 0.844979 1.92038 0.74629 2.00882L0.214839 2.47633C-0.0138265 2.67951 -0.0688821 3.05557 0.091947 3.31576L0.467079 3.916C0.536275 4.02902 0.579259 4.22738 0.560088 4.35833L0.47603 4.9325C0.423923 5.28841 0.673278 5.6233 1.0292 5.67541L1.61008 5.76045C1.74103 5.77962 1.9221 5.87815 2.01005 5.9802L2.47371 6.51452C2.67639 6.74654 3.05581 6.80209 3.31986 6.63839L3.91723 6.25941C4.03074 6.18686 4.2291 6.14387 4.36341 6.16354L4.93422 6.2471C5.29013 6.29921 5.62502 6.04985 5.67713 5.69393L5.76069 5.12312C5.77987 4.99217 5.8784 4.81111 5.98044 4.72316L6.51476 4.25949C6.74343 4.05632 6.79947 3.67354 6.63528 3.41286ZM4.85308 2.93587L2.99388 4.32022C2.93999 4.36035 2.87226 4.37787 2.80511 4.36804C2.73795 4.35821 2.67809 4.322 2.63796 4.26811L1.94435 3.33659C1.86124 3.22496 1.88483 3.06379 1.99646 2.98067C2.10809 2.89755 2.26926 2.92115 2.35238 3.03278L2.89408 3.76029L4.54927 2.52785C4.6609 2.44473 4.82207 2.46833 4.90519 2.57996C4.98831 2.69158 4.96471 2.85275 4.85308 2.93587Z" fill="#2B80FF"/>
</svg>
