<svg width="24" height="24" viewBox="0 0 24 24" fill="none" xmlns="http://www.w3.org/2000/svg">
  <circle cx="12" cy="12" r="10" fill="#FF4500"/>
  <path d="M20 12c0-.66-.54-1.2-1.2-1.2-.33 0-.63.13-.85.34-1.66-1.19-3.95-1.97-6.49-2.05l1.1-5.2 3.6.81c.02.69.58 1.25 1.28 1.25.71 0 1.29-.58 1.29-1.29S18.15 3.37 17.44 3.37c-.51 0-.95.3-1.16.73l-4.02-.91c-.15-.03-.3.06-.34.21l-1.24 5.85c-2.6.07-4.95.85-6.63 2.05-.22-.21-.52-.34-.85-.34-.66 0-1.2.54-1.2 1.2 0 .45.25.84.62 1.05-.03.19-.05.39-.05.59 0 3 3.58 5.43 8 5.43s8-2.43 8-5.43c0-.2-.02-.4-.05-.59.37-.21.62-.6.62-1.05zM8.5 13.5c0-.55.45-1 1-1s1 .45 1 1-.45 1-1 1-1-.45-1-1zm6.48 3.38c-.88.88-2.56.88-2.56.88s-1.68 0-2.56-.88c-.12-.12-.12-.31 0-.43.12-.12.31-.12.43 0 .55.55 1.46.73 2.13.73s1.58-.18 2.13-.73c.12-.12.31-.12.43 0 .12.12.12.31 0 .43zm-.48-2.38c-.55 0-1-.45-1-1s.45-1 1-1 1 .45 1 1-.45 1-1 1z" fill="white"/>
</svg>
