<svg width="272" height="325" viewBox="0 0 272 325" fill="none" xmlns="http://www.w3.org/2000/svg">
<path d="M9.31176 245.99H29.6536V252.812H16.5472V256.947H28.62V263.976H16.5472V268.523H29.6536V275.345H9.31176V245.99ZM29.3206 245.99H37.3002C38.2511 248.223 39.0781 250.208 39.7396 251.903C40.4011 253.598 41.0213 255.252 41.5174 256.823C42.0136 258.394 42.3857 260.048 42.7164 261.784C43.0472 263.521 43.2953 265.505 43.502 267.779C43.502 267.945 43.5847 268.027 43.7501 268.027C43.8741 268.027 43.9568 267.945 43.9981 267.779C44.2049 265.505 44.4529 263.521 44.7837 261.784C45.1145 260.048 45.5279 258.394 46.0241 256.823C46.5202 255.252 47.099 253.598 47.8019 251.903C48.5048 250.208 49.3317 248.223 50.2826 245.99H58.2209L49.0009 275.345H38.6646L29.3206 245.99ZM59.459 245.99H79.8008V252.812H66.6944V256.947H78.7672V263.976H66.6944V268.523H79.8008V275.345H59.459V245.99ZM82.2715 245.99H92.8146C96.825 245.99 99.8432 246.983 101.869 248.885C103.895 250.786 104.929 253.681 104.929 257.526C104.929 262.28 103.316 265.547 100.133 267.324L106.583 275.345H97.4452L93.104 268.896H89.5069V275.345H82.2715V245.99ZM93.1453 262.074C93.9722 262.074 94.6751 262.032 95.2126 261.908C95.7501 261.784 96.1635 261.536 96.4943 261.205C96.7837 260.875 96.9904 260.42 97.1145 259.8C97.1972 259.221 97.2798 258.435 97.2798 257.443C97.2798 256.492 97.1972 255.706 97.1145 255.128C96.9904 254.549 96.7837 254.053 96.4943 253.722C96.1635 253.391 95.7501 253.184 95.2539 253.06C94.7164 252.936 94.0136 252.854 93.1867 252.854H89.5069V262.074H93.1453ZM113.589 267.159L103.584 245.99H112.101C112.845 247.272 113.465 248.43 114.044 249.422C114.582 250.456 115.078 251.448 115.491 252.44C115.905 253.432 116.277 254.425 116.607 255.458C116.897 256.492 117.145 257.65 117.352 258.931C117.352 259.097 117.434 259.179 117.6 259.179C117.724 259.179 117.806 259.097 117.848 258.931C118.055 257.65 118.303 256.492 118.592 255.458C118.881 254.425 119.254 253.432 119.667 252.44C120.08 251.448 120.577 250.456 121.155 249.422C121.734 248.43 122.396 247.272 123.14 245.99H131.657L121.652 267.076V275.345H113.589V267.159ZM138.419 252.812H130.563V245.99H153.51V252.812H145.654V275.345H138.419V252.812ZM155.595 245.99H162.83V256.74H173.373V245.99H180.609V275.345H173.373V263.562H162.83V275.345H155.595V245.99ZM184.343 245.99H191.578V275.345H184.343V245.99ZM195.284 245.99H208.35C209.301 248.223 210.127 250.208 210.83 252.027C211.492 253.846 212.112 255.582 212.649 257.278C213.146 259.014 213.6 260.751 213.973 262.528C214.345 264.348 214.717 266.332 215.047 268.523C215.047 268.648 215.13 268.689 215.296 268.689C215.461 268.689 215.544 268.648 215.544 268.523C215.461 266.332 215.42 264.348 215.42 262.528C215.42 260.751 215.42 259.014 215.42 257.278C215.42 255.541 215.461 253.805 215.461 251.985C215.461 250.208 215.502 248.223 215.544 245.99H222.779V275.345H210.127C209.094 273.154 208.226 271.17 207.481 269.35C206.737 267.531 206.117 265.795 205.579 264.058C205.042 262.322 204.587 260.585 204.174 258.766C203.76 256.988 203.347 255.004 203.016 252.812C202.975 252.73 202.892 252.647 202.727 252.647C202.561 252.647 202.52 252.73 202.52 252.812C202.561 255.045 202.603 257.03 202.603 258.807C202.603 260.627 202.603 262.363 202.603 264.1C202.603 265.836 202.561 267.573 202.561 269.35C202.52 271.17 202.52 273.154 202.52 275.345H195.284V245.99ZM226.082 260.709C226.082 255.748 227.364 251.985 229.968 249.505C232.573 247.024 236.459 245.784 241.669 245.784C244.026 245.784 246.093 245.99 247.912 246.404C249.731 246.817 251.261 247.479 252.543 248.347C253.783 249.215 254.817 250.29 255.602 251.613C256.347 252.936 256.925 254.549 257.256 256.368H249.607C249.359 255.748 249.028 255.21 248.656 254.797C248.243 254.383 247.747 254.011 247.127 253.763C246.506 253.515 245.762 253.308 244.853 253.184C243.943 253.102 242.909 253.019 241.669 253.019C240.222 253.019 238.982 253.184 237.989 253.432C236.997 253.722 236.17 254.177 235.55 254.756C234.888 255.376 234.434 256.161 234.144 257.154C233.855 258.146 233.731 259.304 233.731 260.709C233.731 262.115 233.855 263.314 234.185 264.265C234.475 265.257 234.93 266.043 235.591 266.622C236.211 267.242 237.038 267.697 238.072 267.945C239.106 268.234 240.346 268.358 241.793 268.358C243.529 268.358 244.935 268.193 246.052 267.779C247.168 267.366 248.036 266.746 248.698 265.836H241.917V259.014H257.504V275.345H250.682V268.027C250.682 267.862 250.6 267.779 250.475 267.779C250.31 267.779 250.269 267.862 250.269 268.027C250.269 269.102 250.062 270.095 249.649 271.004C249.235 271.914 248.698 272.741 247.953 273.402C247.209 274.064 246.3 274.601 245.266 274.973C244.232 275.387 243.075 275.552 241.793 275.552C236.584 275.552 232.656 274.353 230.01 271.872C227.364 269.392 226.082 265.671 226.082 260.709ZM30.1055 286.99H40.6485C44.659 286.99 47.6772 287.941 49.7031 289.802C51.729 291.704 52.7627 294.515 52.7627 298.278C52.7627 302.04 51.729 304.851 49.7031 306.712C47.6772 308.573 44.659 309.482 40.6485 309.482H37.3409V316.345H30.1055V286.99ZM40.9793 302.66C41.8062 302.66 42.5091 302.619 43.0465 302.495C43.584 302.412 43.9975 302.164 44.3282 301.833C44.6177 301.503 44.8244 301.048 44.9484 300.469C45.0311 299.89 45.1138 299.146 45.1138 298.236C45.1138 297.327 45.0311 296.624 44.9484 296.045C44.8244 295.466 44.6177 295.011 44.3282 294.681C43.9975 294.35 43.584 294.143 43.0879 294.019C42.5504 293.936 41.8475 293.854 41.0206 293.854H37.3409V302.66H40.9793ZM56.0674 286.99H66.6104C70.6209 286.99 73.6391 287.983 75.665 289.885C77.6909 291.786 78.7246 294.681 78.7246 298.526C78.7246 303.28 77.1121 306.547 73.9285 308.324L80.3784 316.345H71.2411L66.8998 309.896H63.3028V316.345H56.0674V286.99ZM66.9412 303.074C67.7681 303.074 68.4709 303.032 69.0084 302.908C69.5459 302.784 69.9594 302.536 70.2901 302.205C70.5796 301.875 70.7863 301.42 70.9103 300.8C70.993 300.221 71.0757 299.435 71.0757 298.443C71.0757 297.492 70.993 296.706 70.9103 296.128C70.7863 295.549 70.5796 295.053 70.2901 294.722C69.9594 294.391 69.5459 294.184 69.0498 294.06C68.5123 293.936 67.8094 293.854 66.9825 293.854H63.3028V303.074H66.9412ZM81.3429 286.99H101.685V293.812H88.5783V297.947H100.651V304.976H88.5783V309.523H101.685V316.345H81.3429V286.99ZM104.155 286.99H111.391V309.523H123.67V316.345H104.155V286.99ZM124.374 301.709C124.374 296.748 125.697 292.985 128.385 290.505C131.072 288.024 135.083 286.784 140.375 286.784C145.667 286.784 149.636 288.024 152.324 290.505C155.011 292.985 156.375 296.748 156.375 301.709C156.375 306.671 155.011 310.392 152.324 312.872C149.636 315.353 145.667 316.552 140.375 316.552C135.083 316.552 131.072 315.353 128.385 312.872C125.697 310.392 124.374 306.671 124.374 301.709ZM132.023 301.709C132.023 303.198 132.147 304.438 132.395 305.43C132.643 306.423 133.098 307.167 133.76 307.746C134.421 308.324 135.289 308.738 136.364 308.986C137.439 309.234 138.762 309.358 140.375 309.358C141.946 309.358 143.31 309.234 144.385 308.986C145.46 308.738 146.287 308.324 146.949 307.746C147.569 307.167 148.024 306.381 148.313 305.389C148.561 304.397 148.727 303.198 148.727 301.709C148.727 300.221 148.561 298.939 148.313 297.947C148.065 296.955 147.61 296.169 146.949 295.59C146.287 295.011 145.46 294.639 144.385 294.391C143.31 294.143 141.987 294.019 140.375 294.019C138.721 294.019 137.398 294.143 136.323 294.35C135.248 294.598 134.38 294.97 133.76 295.549C133.098 296.128 132.643 296.913 132.395 297.905C132.147 298.898 132.023 300.179 132.023 301.709ZM156.627 286.99H164.606C165.557 289.223 166.384 291.208 167.046 292.903C167.707 294.598 168.327 296.252 168.824 297.823C169.32 299.394 169.692 301.048 170.023 302.784C170.353 304.521 170.601 306.505 170.808 308.779C170.808 308.945 170.891 309.027 171.056 309.027C171.18 309.027 171.263 308.945 171.304 308.779C171.511 306.505 171.759 304.521 172.09 302.784C172.421 301.048 172.834 299.394 173.33 297.823C173.826 296.252 174.405 294.598 175.108 292.903C175.811 291.208 176.638 289.223 177.589 286.99H185.527L176.307 316.345H165.971L156.627 286.99ZM186.765 286.99H207.107V293.812H194.001V297.947H206.073V304.976H194.001V309.523H207.107V316.345H186.765V286.99ZM209.578 286.99H221.196C226.405 286.99 230.333 288.231 232.979 290.67C235.625 293.109 236.948 296.789 236.948 301.709C236.948 306.588 235.625 310.268 232.979 312.707C230.333 315.146 226.405 316.345 221.196 316.345H209.578V286.99ZM221.278 309.523C222.725 309.523 223.966 309.399 224.958 309.11C225.95 308.821 226.777 308.366 227.439 307.746C228.1 307.125 228.555 306.299 228.845 305.306C229.134 304.314 229.299 303.115 229.299 301.709C229.299 300.304 229.134 299.105 228.845 298.112C228.555 297.12 228.1 296.293 227.48 295.632C226.86 295.011 226.074 294.557 225.082 294.267C224.09 293.978 222.932 293.812 221.568 293.812H216.813V309.523H221.278Z" fill="#FF5202"/>
<path d="M13.0149 13.3127H54.12C60.589 13.3127 65.9799 13.8517 70.2925 14.9299C74.4704 16.0081 77.8397 17.6253 80.2656 19.7817C82.6914 22.0728 84.4435 24.903 85.3869 28.2722C86.3303 31.6415 86.8693 35.6846 86.8693 40.4016C86.8693 42.2884 86.5998 44.31 86.3303 46.6011C86.0607 48.8922 85.2521 51.0485 84.0392 53.0701C82.8262 55.0916 81.0742 56.7089 78.7831 58.0566C76.492 59.4043 73.3923 59.8086 69.3491 59.5391C68.81 59.5391 68.5405 59.6738 68.5405 60.2129C68.5405 60.752 68.81 60.8868 69.3491 60.8868C73.9313 60.6172 77.7049 61.2911 80.5351 62.6388C83.3653 64.1213 85.5216 66.0081 87.1389 68.2992C88.6214 70.5903 89.5648 73.0162 90.1038 75.7116C90.6429 78.407 90.9125 80.9677 90.9125 83.124C90.9125 87.5714 90.3734 91.345 89.43 94.5795C88.3518 97.814 86.5998 100.509 84.0392 102.666C81.3437 104.822 77.8397 106.439 73.3923 107.518C68.81 108.596 63.0149 109 56.0068 109H13.0149V13.3127ZM48.4596 49.8356C51.1551 49.8356 53.4462 49.8356 55.1982 49.566C56.9502 49.4313 58.2979 49.1617 59.3761 48.6226C60.3195 48.0835 60.9933 47.4097 61.3976 46.4663C61.6672 45.5229 61.9367 44.1752 61.9367 42.5579C61.9367 41.0755 61.6672 39.8625 61.3976 38.9191C60.9933 38.1105 60.3195 37.4366 59.3761 36.8976C58.2979 36.4932 56.9502 36.2237 55.333 35.9542C53.5809 35.8194 51.2898 35.6846 48.5944 35.6846H36.5998V49.8356H48.4596ZM50.4812 86.7628C53.7157 86.7628 56.2763 86.7628 58.2979 86.4933C60.1847 86.3585 61.802 85.9542 63.0149 85.4151C64.0931 84.876 64.9017 84.0674 65.306 82.9892C65.7103 81.911 65.9799 80.5633 65.9799 78.9461C65.9799 77.1941 65.7103 75.8464 65.306 74.7682C64.9017 73.69 64.0931 72.8814 63.0149 72.2075C61.802 71.6685 60.1847 71.2641 58.1631 70.9946C56.1416 70.8598 53.5809 70.7251 50.3464 70.7251H36.5998V86.7628H50.4812ZM139.643 109.539C126.166 109.539 115.923 106.439 109.184 100.105C102.311 93.7709 98.9419 84.3369 98.9419 71.6685V13.3127H122.527V71.6685C122.527 74.903 122.796 77.5984 123.47 79.6199C124.009 81.7763 125.087 83.3935 126.435 84.4717C127.783 85.5499 129.67 86.3585 131.826 86.7628C133.982 87.3019 136.543 87.4367 139.643 87.4367C142.742 87.4367 145.438 87.3019 147.594 86.7628C149.751 86.3585 151.637 85.5499 152.985 84.4717C154.333 83.3935 155.276 81.7763 155.95 79.6199C156.489 77.5984 156.893 74.903 156.893 71.6685V13.3127H180.478V71.6685C180.478 84.3369 176.974 93.7709 170.236 100.105C163.362 106.439 153.12 109.539 139.643 109.539ZM212.361 82.3154L179.746 13.3127H207.509C209.935 17.4906 211.957 21.2641 213.844 24.4986C215.596 27.8679 217.213 31.1024 218.561 34.3369C219.908 37.5714 221.121 40.8059 222.199 44.1752C223.143 47.5445 223.951 51.318 224.625 55.4959C224.625 56.035 224.895 56.3046 225.434 56.3046C225.838 56.3046 226.108 56.035 226.242 55.4959C226.916 51.318 227.725 47.5445 228.668 44.1752C229.612 40.8059 230.825 37.5714 232.172 34.3369C233.52 31.1024 235.137 27.8679 237.024 24.4986C238.911 21.2641 241.067 17.4906 243.493 13.3127H271.256L238.641 82.0458V109H212.361V82.3154Z" fill="#FF5202"/>
<path d="M39.626 219.792C37.3058 219.792 34.6377 219.676 31.8536 219.328C28.9535 218.98 26.0533 218.516 23.2692 217.82C20.4851 217.124 17.7009 216.312 15.1488 215.268C12.5967 214.34 10.3926 213.18 8.65253 211.904C6.91245 210.628 5.63639 209.236 4.94035 207.611C4.24432 206.103 4.36033 204.363 5.28837 202.507L13.0607 186.615C13.5247 185.686 14.1048 185.106 14.9168 185.106C16.0769 185.106 17.4689 185.918 19.093 187.543C20.7171 189.167 22.6892 191.023 24.7773 192.879C26.8654 194.851 29.0695 196.591 31.6216 198.215C34.0577 199.839 36.7258 200.651 39.5099 200.651C42.6421 200.651 45.0782 200.303 46.8183 199.375C48.5584 198.447 49.4864 197.171 49.4864 195.547C49.4864 194.503 49.0224 193.691 48.3263 192.995C47.5143 192.415 46.4703 191.835 45.1942 191.371C43.8021 190.907 42.2941 190.559 40.554 190.095C38.6979 189.631 36.8418 189.167 34.8697 188.587C31.7376 187.659 28.4894 186.615 25.2413 185.338C21.9931 184.062 18.977 182.438 16.1929 180.582C13.4087 178.726 11.2046 176.406 9.46456 173.622C7.72448 170.954 6.91245 167.706 6.91245 163.761C6.91245 158.425 7.84049 153.901 9.69657 150.305C11.5527 146.825 13.9888 143.925 17.0049 141.836C20.021 139.748 23.5012 138.356 27.4454 137.428C31.3896 136.616 35.3338 136.152 39.3939 136.152C41.018 136.152 42.9901 136.384 45.3102 136.732C47.6303 137.08 49.9504 137.544 52.3865 138.24C54.8227 138.936 57.1428 139.632 59.4629 140.56C61.667 141.488 63.5231 142.532 65.1471 143.693C66.6552 144.853 67.6992 146.129 68.2793 147.521C68.7433 148.913 68.5113 150.305 67.5832 151.697L58.4188 165.618C57.7228 166.778 56.9107 167.242 55.9827 167.242C54.8227 167.242 53.6626 166.662 52.3865 165.386C50.9945 164.226 49.6024 162.833 48.0943 161.325C46.4703 159.817 44.8462 158.425 43.2221 157.149C41.482 155.989 39.626 155.293 37.7699 155.293C35.5658 155.293 33.8257 155.525 32.5496 155.989C31.2736 156.453 30.3455 156.917 29.7655 157.497C29.1855 158.193 28.8375 158.773 28.7214 159.469C28.4894 160.165 28.4894 160.745 28.4894 161.209C28.4894 162.601 28.9535 163.645 30.1135 164.342C31.2736 165.038 32.7816 165.734 34.6377 166.314C36.4938 166.894 38.5819 167.474 40.902 167.938C43.2221 168.518 45.6582 169.098 48.2103 169.794C50.6465 170.49 53.0826 171.302 55.6347 172.23C58.0708 173.158 60.3909 174.434 62.479 175.826C64.9151 177.682 67.0032 180.118 68.6273 182.902C70.2514 185.802 71.0634 189.399 70.9474 193.691C70.8314 198.911 69.7873 203.203 67.9313 206.567C66.0752 209.932 63.6391 212.6 60.7389 214.572C57.7228 216.544 54.4746 217.936 50.7625 218.632C47.0503 219.444 43.3381 219.792 39.626 219.792ZM81.5302 136.5H138.605V155.641H101.831V167.242H135.705V186.963H101.831V199.723H138.605V218.864H81.5302V136.5ZM145.537 136.5H165.838V199.723H200.292V218.864H145.537V136.5ZM207.845 136.5H228.145V199.723H262.599V218.864H207.845V136.5Z" fill="#FF5202"/>
<g filter="url(#filter0_d_3420_32576)">
<mask id="path-4-outside-1_3420_32576" maskUnits="userSpaceOnUse" x="138.733" y="55.8159" width="117.383" height="111.459" fill="black">
<rect fill="white" x="138.733" y="55.8159" width="117.383" height="111.459"/>
<path d="M222.815 98.9823L230.266 116.867C233.097 116.626 235.887 116.285 238.651 115.602C241.315 114.961 243.796 114.162 246.194 113.163L253.063 129.649C249.266 131.231 245.103 132.496 240.632 133.304C236.06 134.153 231.423 134.56 226.56 134.71C224.312 137.757 221.256 140.555 217.676 143.219C213.996 145.925 209.766 148.156 204.97 150.154C200.174 152.152 195.611 153.584 191.098 154.291C186.586 154.999 182.547 155.157 178.801 154.607C175.054 154.057 171.782 152.958 169.084 151.268C166.387 149.577 164.463 147.213 163.215 144.215C162.049 141.417 161.35 138.895 161.175 136.505C161.042 134.215 161.292 132.001 161.825 129.902C162.358 127.804 163.116 125.964 164.215 124.099C165.356 122.334 166.638 120.627 168.062 118.979C165.481 117.005 163.258 114.766 161.476 112.459C159.694 110.153 158.412 107.638 157.73 104.874C156.248 99.6283 156.881 94.6743 159.629 90.0118C162.418 85.4492 167.189 81.7027 174.084 78.8306C177.381 77.4569 180.645 76.5662 183.775 76.2C186.906 75.8338 189.762 75.9339 192.343 76.5002C194.924 77.0665 197.23 78.0991 199.262 79.5979C201.293 81.0967 202.809 83.0451 203.808 85.4431C204.931 88.1408 205.289 90.6886 205.023 93.1448C204.756 95.601 204.107 97.9822 202.933 100.23C201.8 102.578 200.343 104.71 198.603 106.724C196.904 108.839 195.022 110.796 193.14 112.752C195.505 113.643 197.928 114.393 200.509 114.959C203.09 115.525 205.671 116.092 208.41 116.475L204.431 106.641L222.815 98.9823ZM181.534 106.565C183.716 104.484 185.314 102.411 186.389 100.204C187.504 98.0979 187.571 95.725 186.489 93.1272C186.322 92.7275 185.973 92.1697 185.723 91.5702C185.373 91.0123 184.882 90.3961 184.332 89.9215C183.783 89.4469 183.075 89.1554 182.309 89.0055C181.443 88.8973 180.461 89.072 179.262 89.5716C178.063 90.0711 177.189 90.7871 176.556 91.5197C175.923 92.2524 175.532 93.0017 175.382 93.7677C175.132 94.5753 175.124 95.3996 175.173 96.0824C175.223 96.7651 175.232 97.348 175.398 97.7476C176.147 100.953 178.22 103.959 181.534 106.565ZM181.317 126.59C180.476 128.23 180.076 129.803 180.017 131.352C180.001 133.001 180.425 134.583 181.533 136.115C181.965 136.872 182.498 137.589 183.231 138.221C183.864 138.896 184.755 139.345 186.003 139.529C187.294 139.812 188.901 139.729 191.066 139.296C193.131 138.905 195.812 138.022 199.209 136.607C201.907 135.483 204.163 134.426 205.878 133.477C201.407 132.877 197.153 131.952 193.015 130.745C188.818 129.679 184.938 128.247 181.317 126.59Z"/>
</mask>
<path d="M222.815 98.9823L230.266 116.867C233.097 116.626 235.887 116.285 238.651 115.602C241.315 114.961 243.796 114.162 246.194 113.163L253.063 129.649C249.266 131.231 245.103 132.496 240.632 133.304C236.06 134.153 231.423 134.56 226.56 134.71C224.312 137.757 221.256 140.555 217.676 143.219C213.996 145.925 209.766 148.156 204.97 150.154C200.174 152.152 195.611 153.584 191.098 154.291C186.586 154.999 182.547 155.157 178.801 154.607C175.054 154.057 171.782 152.958 169.084 151.268C166.387 149.577 164.463 147.213 163.215 144.215C162.049 141.417 161.35 138.895 161.175 136.505C161.042 134.215 161.292 132.001 161.825 129.902C162.358 127.804 163.116 125.964 164.215 124.099C165.356 122.334 166.638 120.627 168.062 118.979C165.481 117.005 163.258 114.766 161.476 112.459C159.694 110.153 158.412 107.638 157.73 104.874C156.248 99.6283 156.881 94.6743 159.629 90.0118C162.418 85.4492 167.189 81.7027 174.084 78.8306C177.381 77.4569 180.645 76.5662 183.775 76.2C186.906 75.8338 189.762 75.9339 192.343 76.5002C194.924 77.0665 197.23 78.0991 199.262 79.5979C201.293 81.0967 202.809 83.0451 203.808 85.4431C204.931 88.1408 205.289 90.6886 205.023 93.1448C204.756 95.601 204.107 97.9822 202.933 100.23C201.8 102.578 200.343 104.71 198.603 106.724C196.904 108.839 195.022 110.796 193.14 112.752C195.505 113.643 197.928 114.393 200.509 114.959C203.09 115.525 205.671 116.092 208.41 116.475L204.431 106.641L222.815 98.9823ZM181.534 106.565C183.716 104.484 185.314 102.411 186.389 100.204C187.504 98.0979 187.571 95.725 186.489 93.1272C186.322 92.7275 185.973 92.1697 185.723 91.5702C185.373 91.0123 184.882 90.3961 184.332 89.9215C183.783 89.4469 183.075 89.1554 182.309 89.0055C181.443 88.8973 180.461 89.072 179.262 89.5716C178.063 90.0711 177.189 90.7871 176.556 91.5197C175.923 92.2524 175.532 93.0017 175.382 93.7677C175.132 94.5753 175.124 95.3996 175.173 96.0824C175.223 96.7651 175.232 97.348 175.398 97.7476C176.147 100.953 178.22 103.959 181.534 106.565ZM181.317 126.59C180.476 128.23 180.076 129.803 180.017 131.352C180.001 133.001 180.425 134.583 181.533 136.115C181.965 136.872 182.498 137.589 183.231 138.221C183.864 138.896 184.755 139.345 186.003 139.529C187.294 139.812 188.901 139.729 191.066 139.296C193.131 138.905 195.812 138.022 199.209 136.607C201.907 135.483 204.163 134.426 205.878 133.477C201.407 132.877 197.153 131.952 193.015 130.745C188.818 129.679 184.938 128.247 181.317 126.59Z" fill="#FF5202"/>
<path d="M222.815 98.9823L224.228 98.3937L223.64 96.9806L222.227 97.5693L222.815 98.9823ZM230.266 116.867L228.853 117.456L229.283 118.487L230.396 118.392L230.266 116.867ZM238.651 115.602L238.293 114.114L238.284 114.116L238.651 115.602ZM246.194 113.163L247.607 112.574L247.019 111.161L245.606 111.75L246.194 113.163ZM253.063 129.649L253.651 131.062L255.064 130.473L254.476 129.06L253.063 129.649ZM240.632 133.304L240.36 131.797L240.352 131.799L240.632 133.304ZM226.56 134.71L226.513 133.18L225.77 133.203L225.329 133.801L226.56 134.71ZM217.676 143.219L218.583 144.452L218.59 144.447L217.676 143.219ZM191.098 154.291L191.335 155.803V155.803L191.098 154.291ZM178.801 154.607L178.578 156.121V156.121L178.801 154.607ZM169.084 151.268L168.271 152.565L168.271 152.565L169.084 151.268ZM161.175 136.505L159.647 136.594L159.648 136.605L159.648 136.617L161.175 136.505ZM161.825 129.902L163.309 130.279V130.279L161.825 129.902ZM164.215 124.099L162.929 123.268L162.912 123.295L162.896 123.322L164.215 124.099ZM168.062 118.979L169.22 119.979L170.282 118.75L168.992 117.763L168.062 118.979ZM157.73 104.874L159.216 104.507L159.21 104.482L159.203 104.458L157.73 104.874ZM159.629 90.0118L158.323 89.2133L158.316 89.2239L158.31 89.2346L159.629 90.0118ZM192.343 76.5002L192.671 75.005L192.671 75.005L192.343 76.5002ZM199.262 79.5979L198.353 80.8297V80.8297L199.262 79.5979ZM205.023 93.1448L203.501 92.9796L203.501 92.9796L205.023 93.1448ZM202.933 100.23L201.576 99.5216L201.564 99.5432L201.554 99.5652L202.933 100.23ZM198.603 106.724L197.444 105.724L197.426 105.744L197.409 105.766L198.603 106.724ZM193.14 112.752L192.037 111.691L190.427 113.365L192.601 114.185L193.14 112.752ZM200.509 114.959L200.181 116.454L200.181 116.454L200.509 114.959ZM208.41 116.475L208.198 117.991L210.824 118.358L209.829 115.901L208.41 116.475ZM204.431 106.641L203.842 105.228L202.444 105.811L203.012 107.216L204.431 106.641ZM181.534 106.565L180.588 107.769L181.631 108.589L182.591 107.673L181.534 106.565ZM186.389 100.204L185.036 99.4879L185.024 99.5109L185.012 99.5343L186.389 100.204ZM185.723 91.5702L187.136 90.9815L187.087 90.8645L187.02 90.7572L185.723 91.5702ZM184.332 89.9215L183.332 91.08L183.332 91.08L184.332 89.9215ZM182.309 89.0055L182.603 87.5033L182.552 87.4931L182.499 87.4866L182.309 89.0055ZM175.382 93.7677L176.844 94.2201L176.868 94.142L176.884 94.0617L175.382 93.7677ZM175.398 97.7476L176.889 97.3992L176.86 97.2759L176.811 97.1589L175.398 97.7476ZM181.317 126.59L181.953 125.198L180.622 124.589L179.954 125.891L181.317 126.59ZM180.017 131.352L178.488 131.294L178.487 131.316L178.487 131.337L180.017 131.352ZM181.533 136.115L182.862 135.355L182.821 135.284L182.773 135.218L181.533 136.115ZM183.231 138.221L184.347 137.174L184.292 137.115L184.232 137.063L183.231 138.221ZM186.003 139.529L186.332 138.033L186.279 138.022L186.226 138.014L186.003 139.529ZM191.066 139.296L190.781 137.792L190.773 137.793L190.766 137.795L191.066 139.296ZM205.878 133.477L206.619 134.816L210.67 132.575L206.082 131.959L205.878 133.477ZM193.015 130.745L193.443 129.276L193.417 129.268L193.391 129.261L193.015 130.745ZM222.815 98.9823L221.402 99.571L228.853 117.456L230.266 116.867L231.679 116.279L224.228 98.3937L222.815 98.9823ZM230.266 116.867L230.396 118.392C233.259 118.148 236.14 117.799 239.018 117.088L238.651 115.602L238.284 114.116C235.633 114.771 232.935 115.103 230.136 115.342L230.266 116.867ZM238.651 115.602L239.009 117.09C241.746 116.432 244.305 115.608 246.783 114.576L246.194 113.163L245.606 111.75C243.288 112.715 240.884 113.49 238.293 114.114L238.651 115.602ZM246.194 113.163L244.781 113.752L251.65 130.238L253.063 129.649L254.476 129.06L247.607 112.574L246.194 113.163ZM253.063 129.649L252.474 128.236C248.776 129.777 244.719 131.01 240.36 131.797L240.632 133.304L240.904 134.81C245.486 133.982 249.756 132.685 253.651 131.062L253.063 129.649ZM240.632 133.304L240.352 131.799C235.877 132.63 231.321 133.032 226.513 133.18L226.56 134.71L226.607 136.24C231.525 136.089 236.244 135.676 240.911 134.809L240.632 133.304ZM226.56 134.71L225.329 133.801C223.202 136.683 220.275 139.377 216.762 141.991L217.676 143.219L218.59 144.447C222.238 141.732 225.422 138.831 227.792 135.619L226.56 134.71ZM217.676 143.219L216.769 141.985C213.215 144.598 209.102 146.774 204.381 148.741L204.97 150.154L205.559 151.567C210.43 149.537 214.776 147.251 218.583 144.452L217.676 143.219ZM204.97 150.154L204.381 148.741C199.661 150.707 195.219 152.096 190.861 152.779L191.098 154.291L191.335 155.803C196.003 155.072 200.687 153.596 205.559 151.567L204.97 150.154ZM191.098 154.291L190.861 152.779C186.448 153.471 182.572 153.613 179.023 153.092L178.801 154.607L178.578 156.121C182.523 156.7 186.723 156.526 191.335 155.803L191.098 154.291ZM178.801 154.607L179.023 153.092C175.435 152.566 172.376 151.524 169.897 149.971L169.084 151.268L168.271 152.565C171.188 154.392 174.673 155.548 178.578 156.121L178.801 154.607ZM169.084 151.268L169.897 149.971C167.489 148.461 165.764 146.355 164.628 143.626L163.215 144.215L161.802 144.804C163.163 148.071 165.285 150.693 168.271 152.565L169.084 151.268ZM163.215 144.215L164.628 143.626C163.502 140.923 162.861 138.567 162.702 136.393L161.175 136.505L159.648 136.617C159.839 139.222 160.597 141.912 161.802 144.804L163.215 144.215ZM161.175 136.505L162.703 136.416C162.58 134.296 162.811 132.238 163.309 130.279L161.825 129.902L160.341 129.526C159.773 131.763 159.504 134.135 159.647 136.594L161.175 136.505ZM161.825 129.902L163.309 130.279C163.806 128.322 164.508 126.616 165.534 124.876L164.215 124.099L162.896 123.322C161.723 125.312 160.91 127.287 160.341 129.526L161.825 129.902ZM164.215 124.099L165.5 124.93C166.601 123.227 167.841 121.576 169.22 119.979L168.062 118.979L166.903 117.978C165.435 119.678 164.11 121.442 162.929 123.268L164.215 124.099ZM168.062 118.979L168.992 117.763C166.516 115.87 164.387 113.724 162.688 111.523L161.476 112.459L160.265 113.395C162.128 115.807 164.446 118.141 167.132 120.195L168.062 118.979ZM161.476 112.459L162.688 111.523C161.02 109.365 159.842 107.041 159.216 104.507L157.73 104.874L156.244 105.241C156.983 108.235 158.369 110.941 160.265 113.395L161.476 112.459ZM157.73 104.874L159.203 104.458C157.834 99.6111 158.414 95.0886 160.948 90.789L159.629 90.0118L158.31 89.2346C155.348 94.26 154.662 99.6455 156.257 105.29L157.73 104.874ZM159.629 90.0118L160.935 90.8103C163.506 86.6047 167.974 83.0344 174.672 80.2436L174.084 78.8306L173.495 77.4175C166.405 80.3711 161.331 84.2938 158.323 89.2133L159.629 90.0118ZM174.084 78.8306L174.672 80.2436C177.857 78.9166 180.983 78.0678 183.953 77.7204L183.775 76.2L183.598 74.6796C180.306 75.0646 176.904 75.9972 173.495 77.4175L174.084 78.8306ZM183.775 76.2L183.953 77.7204C186.947 77.3703 189.628 77.4718 192.015 77.9954L192.343 76.5002L192.671 75.005C189.895 74.396 186.865 74.2974 183.598 74.6796L183.775 76.2ZM192.343 76.5002L192.015 77.9954C194.396 78.5178 196.502 79.4644 198.353 80.8297L199.262 79.5979L200.171 78.3661C197.958 76.7337 195.452 75.6152 192.671 75.005L192.343 76.5002ZM199.262 79.5979L198.353 80.8297C200.155 82.1588 201.499 83.8821 202.395 86.0317L203.808 85.4431L205.221 84.8544C204.118 82.2081 202.432 80.0346 200.171 78.3661L199.262 79.5979ZM203.808 85.4431L202.395 86.0317C203.427 88.5091 203.738 90.7983 203.501 92.9796L205.023 93.1448L206.545 93.31C206.841 90.5789 206.436 87.7724 205.221 84.8544L203.808 85.4431ZM205.023 93.1448L203.501 92.9796C203.252 95.2737 202.649 97.466 201.576 99.5216L202.933 100.23L204.289 100.939C205.564 98.4985 206.26 95.9283 206.545 93.31L205.023 93.1448ZM202.933 100.23L201.554 99.5652C200.488 101.774 199.111 103.794 197.444 105.724L198.603 106.724L199.761 107.725C201.575 105.625 203.112 103.382 204.311 100.895L202.933 100.23ZM198.603 106.724L197.409 105.766C195.76 107.818 193.927 109.726 192.037 111.691L193.14 112.752L194.244 113.813C196.117 111.865 198.047 109.86 199.796 107.683L198.603 106.724ZM193.14 112.752L192.601 114.185C195.024 115.098 197.518 115.87 200.181 116.454L200.509 114.959L200.837 113.464C198.338 112.915 195.986 112.189 193.68 111.32L193.14 112.752ZM200.509 114.959L200.181 116.454C202.754 117.019 205.392 117.598 208.198 117.991L208.41 116.475L208.622 114.959C205.951 114.585 203.426 114.032 200.837 113.464L200.509 114.959ZM208.41 116.475L209.829 115.901L205.85 106.067L204.431 106.641L203.012 107.216L206.991 117.049L208.41 116.475ZM204.431 106.641L205.02 108.054L223.404 100.395L222.815 98.9823L222.227 97.5693L203.842 105.228L204.431 106.641ZM181.534 106.565L182.591 107.673C184.869 105.499 186.592 103.283 187.765 100.874L186.389 100.204L185.012 99.5343C184.037 101.538 182.562 103.468 180.477 105.458L181.534 106.565ZM186.389 100.204L187.741 100.921C189.1 98.3551 189.135 95.4973 187.902 92.5385L186.489 93.1272L185.076 93.7159C186.008 95.9527 185.908 97.8408 185.036 99.4879L186.389 100.204ZM186.489 93.1272L187.902 92.5385C187.785 92.2572 187.612 91.9382 187.491 91.7094C187.352 91.446 187.231 91.2108 187.136 90.9815L185.723 91.5702L184.31 92.1588C184.464 92.529 184.643 92.8725 184.783 93.1378C184.941 93.4377 185.026 93.5975 185.076 93.7159L186.489 93.1272ZM185.723 91.5702L187.02 90.7572C186.608 90.0993 186.022 89.3577 185.333 88.763L184.332 89.9215L183.332 91.08C183.742 91.4345 184.139 91.9253 184.426 92.3831L185.723 91.5702ZM184.332 89.9215L185.333 88.763C184.528 88.0673 183.55 87.6885 182.603 87.5033L182.309 89.0055L182.015 90.5078C182.601 90.6224 183.038 90.8264 183.332 91.08L184.332 89.9215ZM182.309 89.0055L182.499 87.4866C181.28 87.3341 180.019 87.5977 178.673 88.1585L179.262 89.5716L179.851 90.9846C180.903 90.5464 181.607 90.4604 182.119 90.5245L182.309 89.0055ZM179.262 89.5716L178.673 88.1585C177.23 88.7597 176.167 89.6281 175.397 90.5191L176.556 91.5197L177.714 92.5203C178.21 91.946 178.896 91.3824 179.851 90.9846L179.262 89.5716ZM176.556 91.5197L175.397 90.5191C174.632 91.4054 174.091 92.3904 173.879 93.4737L175.382 93.7677L176.884 94.0617C176.972 93.613 177.214 93.0993 177.714 92.5203L176.556 91.5197ZM175.382 93.7677L173.919 93.3154C173.589 94.3833 173.59 95.4242 173.647 96.194L175.173 96.0824L176.7 95.9707C176.657 95.3751 176.675 94.7674 176.844 94.2201L175.382 93.7677ZM175.173 96.0824L173.647 96.194C173.667 96.4737 173.687 96.8703 173.719 97.179C173.753 97.4982 173.814 97.9247 173.985 98.3363L175.398 97.7476L176.811 97.1589C176.816 97.1709 176.79 97.1062 176.765 96.8633C176.738 96.61 176.73 96.3738 176.7 95.9707L175.173 96.0824ZM175.398 97.7476L173.908 98.096C174.754 101.719 177.073 105.004 180.588 107.769L181.534 106.565L182.48 105.362C179.368 102.914 177.54 100.187 176.889 97.3992L175.398 97.7476ZM181.317 126.59L179.954 125.891C179.017 127.718 178.555 129.51 178.488 131.294L180.017 131.352L181.547 131.41C181.597 130.097 181.934 128.741 182.679 127.288L181.317 126.59ZM180.017 131.352L178.487 131.337C178.467 133.288 178.979 135.195 180.292 137.011L181.533 136.115L182.773 135.218C181.871 133.97 181.534 132.713 181.548 131.368L180.017 131.352ZM181.533 136.115L180.203 136.874C180.701 137.745 181.337 138.608 182.23 139.38L183.231 138.221L184.232 137.063C183.659 136.569 183.23 136 182.862 135.355L181.533 136.115ZM183.231 138.221L182.115 139.269C183.032 140.247 184.267 140.821 185.781 141.043L186.003 139.529L186.226 138.014C185.242 137.87 184.695 137.545 184.347 137.174L183.231 138.221ZM186.003 139.529L185.675 141.024C187.272 141.374 189.125 141.245 191.366 140.797L191.066 139.296L190.766 137.795C188.677 138.212 187.316 138.249 186.332 138.033L186.003 139.529ZM191.066 139.296L191.351 140.8C193.568 140.38 196.362 139.451 199.798 138.02L199.209 136.607L198.62 135.194C195.261 136.593 192.693 137.429 190.781 137.792L191.066 139.296ZM199.209 136.607L199.798 138.02C202.524 136.884 204.836 135.803 206.619 134.816L205.878 133.477L205.137 132.137C203.49 133.049 201.29 134.082 198.62 135.194L199.209 136.607ZM205.878 133.477L206.082 131.959C201.69 131.37 197.511 130.463 193.443 129.276L193.015 130.745L192.586 132.214C196.794 133.442 201.124 134.383 205.675 134.994L205.878 133.477ZM193.015 130.745L193.391 129.261C189.295 128.221 185.502 126.821 181.953 125.198L181.317 126.59L180.68 127.982C184.375 129.672 188.342 131.137 192.638 132.229L193.015 130.745Z" fill="white" mask="url(#path-4-outside-1_3420_32576)"/>
</g>
<defs>
<filter id="filter0_d_3420_32576" x="148.858" y="74.4536" width="112.769" height="95.1389" filterUnits="userSpaceOnUse" color-interpolation-filters="sRGB">
<feFlood flood-opacity="0" result="BackgroundImageFix"/>
<feColorMatrix in="SourceAlpha" type="matrix" values="0 0 0 0 0 0 0 0 0 0 0 0 0 0 0 0 0 0 127 0" result="hardAlpha"/>
<feOffset dy="6.56235"/>
<feGaussianBlur stdDeviation="3.28117"/>
<feComposite in2="hardAlpha" operator="out"/>
<feColorMatrix type="matrix" values="0 0 0 0 0 0 0 0 0 0 0 0 0 0 0 0 0 0 0.25 0"/>
<feBlend mode="normal" in2="BackgroundImageFix" result="effect1_dropShadow_3420_32576"/>
<feBlend mode="normal" in="SourceGraphic" in2="effect1_dropShadow_3420_32576" result="shape"/>
</filter>
</defs>
</svg>
