<svg width="136" height="31" viewBox="0 0 136 31" fill="none" xmlns="http://www.w3.org/2000/svg">
<path d="M0 2.1689H12.2502C14.2049 2.1689 15.8115 2.32956 17.07 2.65087C18.3285 2.94542 19.3192 3.42739 20.0422 4.0968C20.7919 4.76622 21.3007 5.60968 21.5685 6.62718C21.863 7.61791 22.0103 8.82286 22.0103 10.242C22.0103 10.7775 21.9567 11.3934 21.8496 12.0896C21.7693 12.759 21.5417 13.4016 21.1668 14.0175C20.8187 14.6066 20.2966 15.1019 19.6004 15.5036C18.931 15.8785 17.9938 16.0257 16.7889 15.9454C16.6282 15.9186 16.5479 15.9856 16.5479 16.1462C16.5479 16.2801 16.6282 16.3471 16.7889 16.3471C18.1812 16.2667 19.2925 16.4408 20.1225 16.8692C20.9794 17.2976 21.6354 17.8599 22.0906 18.5561C22.5458 19.2255 22.8404 19.9619 22.9742 20.7652C23.1349 21.5685 23.2152 22.3048 23.2152 22.9742C23.2152 24.2863 23.068 25.4243 22.7734 26.3882C22.4789 27.3522 21.9433 28.1555 21.1668 28.7981C20.3903 29.4408 19.3326 29.9227 17.9938 30.2441C16.655 30.5386 14.9279 30.6859 12.8126 30.6859H0V2.1689ZM10.5633 13.0535C11.3934 13.0535 12.0628 13.0268 12.5716 12.9732C13.1071 12.9197 13.5221 12.8259 13.8167 12.6921C14.1112 12.5314 14.312 12.3172 14.4191 12.0494C14.5262 11.7549 14.5798 11.3666 14.5798 10.8846C14.5798 10.4294 14.5262 10.068 14.4191 9.8002C14.312 9.53243 14.1112 9.33161 13.8167 9.19773C13.5221 9.06384 13.1205 8.97013 12.6117 8.91657C12.103 8.86302 11.4336 8.83624 10.6035 8.83624H7.02883V13.0535H10.5633ZM11.1658 24.0587C12.1298 24.0587 12.9063 24.0319 13.4954 23.9784C14.0844 23.9248 14.553 23.8177 14.9011 23.657C15.2492 23.4696 15.4768 23.2286 15.5839 22.9341C15.7178 22.6128 15.7847 22.2111 15.7847 21.7291C15.7847 21.1936 15.7178 20.7786 15.5839 20.484C15.4768 20.1627 15.2492 19.9083 14.9011 19.7209C14.553 19.5335 14.071 19.413 13.4552 19.3594C12.8661 19.3059 12.0896 19.2791 11.1256 19.2791H7.02883V24.0587H11.1658Z" fill="#FF5202"/>
<path d="M37.7379 30.8465C33.7214 30.8465 30.6957 29.9093 28.6607 28.035C26.6257 26.1339 25.6082 23.3089 25.6082 19.5602V2.1689H32.637V19.5602C32.637 20.5242 32.7307 21.3141 32.9181 21.93C33.1056 22.5458 33.4001 23.0278 33.8018 23.3759C34.2302 23.6972 34.7657 23.9248 35.4084 24.0587C36.051 24.1926 36.8275 24.2595 37.7379 24.2595C38.6751 24.2595 39.465 24.1926 40.1076 24.0587C40.777 23.9248 41.3126 23.6972 41.7142 23.3759C42.1159 23.0278 42.4104 22.5458 42.5978 21.93C42.7853 21.3141 42.879 20.5242 42.879 19.5602V2.1689H49.9078V19.5602C49.9078 23.3089 48.8903 26.1339 46.8553 28.035C44.8203 29.9093 41.7812 30.8465 37.7379 30.8465Z" fill="#FF5202"/>
<path d="M65.1933 31.0072C64.39 31.0072 63.493 30.9402 62.5023 30.8064C61.5116 30.6993 60.5208 30.5386 59.5301 30.3244C58.5662 30.0834 57.629 29.7889 56.7186 29.4408C55.835 29.0927 55.0852 28.7044 54.4694 28.276C53.8803 27.8208 53.4518 27.3254 53.1841 26.7899C52.9431 26.2544 52.9833 25.6653 53.3046 25.0226L55.9956 19.5201C56.1563 19.172 56.3705 18.9979 56.6382 18.9979C57.0399 18.9979 57.5219 19.2791 58.0842 19.8414C58.6733 20.4037 59.3293 21.0196 60.0523 21.689C60.7752 22.3584 61.5651 22.9742 62.422 23.5365C63.2788 24.0988 64.1892 24.38 65.1532 24.38C66.251 24.38 67.0945 24.2327 67.6836 23.9382C68.2994 23.6169 68.6073 23.1751 68.6073 22.6128C68.6073 22.2379 68.4735 21.9433 68.2057 21.7291C67.9379 21.5149 67.5764 21.3275 67.1212 21.1668C66.666 21.0062 66.1305 20.8589 65.5147 20.725C64.8988 20.5643 64.2428 20.3903 63.5466 20.2029C62.4755 19.8815 61.3643 19.5067 60.2129 19.0783C59.0883 18.6231 58.044 18.0741 57.0801 17.4315C56.1429 16.7621 55.3664 15.9588 54.7505 15.0216C54.1614 14.0844 53.8669 12.9464 53.8669 11.6076C53.8669 9.73326 54.1882 8.18022 54.8308 6.9485C55.4735 5.71678 56.3169 4.73944 57.3612 4.01648C58.4323 3.29351 59.6372 2.78476 60.976 2.49022C62.3416 2.19567 63.7206 2.0484 65.113 2.0484C65.7021 2.0484 66.3849 2.11534 67.1614 2.24923C67.9647 2.35633 68.7814 2.53038 69.6115 2.77137C70.4683 2.98558 71.285 3.25335 72.0615 3.57466C72.838 3.89598 73.494 4.25746 74.0296 4.65911C74.5651 5.06076 74.9266 5.50257 75.114 5.98455C75.3015 6.43975 75.2211 6.92172 74.873 7.43048L71.7 12.2502C71.4858 12.6251 71.2047 12.8126 70.8566 12.8126C70.4817 12.8126 70.0667 12.5983 69.6115 12.1699C69.1563 11.7415 68.6609 11.2729 68.1254 10.7642C67.5898 10.2286 67.0275 9.74665 66.4384 9.31822C65.8494 8.8898 65.2201 8.67558 64.5507 8.67558C63.801 8.67558 63.1985 8.75591 62.7433 8.91657C62.3149 9.05046 61.9935 9.2245 61.7793 9.43871C61.5919 9.65293 61.4714 9.88053 61.4179 10.1215C61.3643 10.3357 61.3375 10.5366 61.3375 10.724C61.3375 11.1792 61.525 11.5407 61.8998 11.8084C62.3015 12.0494 62.8236 12.277 63.4663 12.4912C64.1089 12.6787 64.8319 12.8661 65.6352 13.0535C66.4652 13.241 67.3087 13.4552 68.1655 13.6962C69.0224 13.9104 69.8792 14.1915 70.7361 14.5396C71.5929 14.861 72.3828 15.276 73.1058 15.7847C73.9626 16.4274 74.6722 17.2441 75.2345 18.2348C75.8236 19.2255 76.0914 20.4706 76.0378 21.9701C76.011 23.7641 75.6629 25.2502 74.9935 26.4284C74.3509 27.5798 73.5208 28.5036 72.5033 29.1998C71.4858 29.8692 70.3344 30.3378 69.0492 30.6055C67.7639 30.8733 66.4786 31.0072 65.1933 31.0072Z" fill="#FF5202"/>
<path d="M79.7019 2.1689H99.463V8.79608H86.7307V12.8126H98.4588V19.6406H86.7307V24.0587H99.463V30.6859H79.7019V2.1689Z" fill="#FF5202"/>
<path d="M101.863 3.5345C101.863 2.49021 102.198 1.64676 102.867 1.00412C103.537 0.334707 104.434 0 105.558 0C106.603 0 107.446 0.334707 108.089 1.00412C108.758 1.64676 109.093 2.49021 109.093 3.5345C109.093 4.65911 108.758 5.55612 108.089 6.22554C107.446 6.89495 106.603 7.22965 105.558 7.22965C104.434 7.22965 103.537 6.89495 102.867 6.22554C102.198 5.55612 101.863 4.65911 101.863 3.5345ZM102.064 10.001H108.892V30.6859H102.064V10.001Z" fill="#FF5202"/>
<path d="M122.65 30.6859C121.498 30.6859 120.414 30.485 119.396 30.0834C118.406 29.655 117.549 29.0793 116.826 28.3563C116.103 27.6333 115.527 26.7899 115.099 25.8259C114.697 24.8352 114.496 23.7641 114.496 22.6128V16.6282H110.881V10.001H114.496V4.17713H121.324V10.001H126.264V16.6282H121.324V21.6488C121.324 22.4521 121.471 23.0278 121.766 23.3759C122.061 23.6972 122.583 23.8579 123.332 23.8579H127.068V30.6859H122.65Z" fill="#FF5202"/>
<path d="M128.77 27.2719C128.77 26.5489 128.851 25.9598 129.011 25.5046C129.172 25.0226 129.413 24.6478 129.734 24.38C130.056 24.1122 130.43 23.9248 130.859 23.8177C131.314 23.7106 131.823 23.657 132.385 23.657C132.921 23.657 133.403 23.7106 133.831 23.8177C134.286 23.9248 134.675 24.1122 134.996 24.38C135.317 24.6478 135.558 25.0226 135.719 25.5046C135.906 25.9598 136 26.5489 136 27.2719C136 28.0216 135.906 28.6375 135.719 29.1194C135.558 29.6014 135.317 29.9763 134.996 30.2441C134.675 30.485 134.286 30.6457 133.831 30.726C133.403 30.8331 132.921 30.8867 132.385 30.8867C131.823 30.8867 131.314 30.8331 130.859 30.726C130.43 30.6457 130.056 30.485 129.734 30.2441C129.413 29.9763 129.172 29.6014 129.011 29.1194C128.851 28.6375 128.77 28.0216 128.77 27.2719Z" fill="#FF5202"/>
</svg>
