<svg width="58" height="58" viewBox="0 0 58 58" fill="none" xmlns="http://www.w3.org/2000/svg">
<rect x="0.71981" y="0.71981" width="56.1452" height="56.1452" rx="28.0726" stroke="#FF5202" stroke-width="1.43962"/>
<path d="M41.8783 21.5654C40.6546 20.2121 38.6104 19.5355 35.6448 19.5355H35.2993V19.4779C35.2993 17.0594 35.2993 14.0649 29.8863 14.0649H27.6981C22.2851 14.0649 22.2851 17.0737 22.2851 19.4779V19.5499H21.9396C18.9596 19.5499 16.9297 20.2265 15.706 21.5798C14.2808 23.1633 14.324 25.294 14.468 26.748L14.4824 26.8488L14.5939 28.0196C14.6144 28.2352 14.7305 28.43 14.9118 28.5486C15.257 28.7745 15.8348 29.1469 16.1811 29.3393C16.3827 29.4689 16.5986 29.584 16.8145 29.6992C19.2763 31.0525 21.9828 31.9594 24.7325 32.4057C24.862 33.7589 25.4523 35.3425 28.605 35.3425C31.7578 35.3425 32.3768 33.7733 32.4776 32.3769C35.4144 31.9018 38.2505 30.8797 40.813 29.3825C40.8994 29.3393 40.957 29.2961 41.0289 29.2529C41.6001 28.9301 42.1926 28.5324 42.7327 28.1428C42.8954 28.0254 42.9994 27.8439 43.0216 27.6445L43.0444 27.439L43.1164 26.7624C43.1308 26.676 43.1308 26.604 43.1452 26.5033C43.2604 25.0492 43.2316 23.0626 41.8783 21.5654ZM30.3614 31.4268C30.3614 32.9528 30.3614 33.1831 28.5906 33.1831C26.8199 33.1831 26.8199 32.9096 26.8199 31.4412V29.6272H30.3614V31.4268ZM24.3438 19.5355V19.4779C24.3438 17.0306 24.3438 16.1236 27.6981 16.1236H29.8863C33.2406 16.1236 33.2406 17.045 33.2406 19.4779V19.5499H24.3438V19.5355Z" fill="#FF5202"/>
<path d="M41.5667 31.2889C42.0757 31.0467 42.662 31.4502 42.611 32.0116L42.0943 37.7036C41.792 40.5828 40.6115 43.5197 34.2772 43.5197H23.3073C16.9729 43.5197 15.7925 40.5828 15.4901 37.718L14.9996 32.3225C14.9492 31.7676 15.5221 31.3646 16.0298 31.5943C17.6701 32.3364 20.6978 33.6531 22.5681 34.1429C22.8047 34.2049 22.996 34.3742 23.0996 34.5957C23.9734 36.4645 25.8685 37.4589 28.6051 37.4589C31.3146 37.4589 33.2337 36.4262 34.1104 34.5528C34.2141 34.3311 34.4056 34.1619 34.6423 34.0996C36.6283 33.577 39.8511 32.1053 41.5667 31.2889Z" fill="#FF5202"/>
</svg>
