<svg width="58" height="58" viewBox="0 0 58 58" fill="none" xmlns="http://www.w3.org/2000/svg">
<rect x="0.71981" y="0.71981" width="56.1452" height="56.1452" rx="28.0726" stroke="#FF5202" stroke-width="1.43962"/>
<path d="M38.1499 17.4338L30.9662 14.7417C29.7713 14.2954 27.8134 14.2954 26.6185 14.7417L19.4348 17.4338C17.7793 18.0528 16.426 20.0107 16.426 21.767V32.4634C16.426 34.1622 17.5489 36.3936 18.9166 37.4157L25.1069 42.0369C27.1368 43.5629 30.4767 43.5629 32.5066 42.0369L38.6969 37.4157C40.0646 36.3936 41.1875 34.1622 41.1875 32.4634V21.767C41.1587 20.0107 39.8054 18.0528 38.1499 17.4338ZM28.6916 21.6375C30.3903 21.6375 31.7724 23.0195 31.7724 24.7183C31.7724 26.3882 30.4623 27.7271 28.8068 27.7846H28.778H28.7492C28.7204 27.7846 28.6916 27.7846 28.6628 27.7846C26.9352 27.7271 25.6396 26.3882 25.6396 24.7183C25.6252 23.0195 27.0072 21.6375 28.6916 21.6375ZM31.9451 35.0691C31.067 35.645 29.9297 35.9473 28.7924 35.9473C27.6551 35.9473 26.5034 35.6594 25.6396 35.0691C24.819 34.5221 24.3727 33.7735 24.3583 32.9529C24.3583 32.1467 24.819 31.3693 25.6396 30.8222C27.3815 29.6706 30.2176 29.6706 31.9595 30.8222C32.7801 31.3693 33.2408 32.1179 33.2408 32.9385C33.2264 33.7447 32.7657 34.5221 31.9451 35.0691Z" fill="#FF5202"/>
</svg>
