<svg width="58" height="58" viewBox="0 0 58 58" fill="none" xmlns="http://www.w3.org/2000/svg">
<rect x="0.71981" y="0.71981" width="56.1452" height="56.1452" rx="28.0726" stroke="#FF5202" stroke-width="1.43962"/>
<path d="M35.9903 15.0151H21.5941C17.2752 15.0151 14.396 17.8944 14.396 22.2132V30.851C14.396 35.1698 17.2752 38.0491 21.5941 38.0491V41.1154C21.5941 42.2671 22.8754 42.9582 23.8255 42.3103L30.2318 38.0491H35.9903C40.3092 38.0491 43.1884 35.1698 43.1884 30.851V22.2132C43.1884 17.8944 40.3092 15.0151 35.9903 15.0151ZM28.7922 32.5353C28.1876 32.5353 27.7125 32.0458 27.7125 31.4556C27.7125 30.8653 28.1876 30.3759 28.7922 30.3759C29.3968 30.3759 29.8719 30.8653 29.8719 31.4556C29.8719 32.0458 29.3968 32.5353 28.7922 32.5353ZM30.6061 26.5609C30.0447 26.9352 29.8719 27.1799 29.8719 27.583V27.8853C29.8719 28.4756 29.3824 28.9651 28.7922 28.9651C28.2019 28.9651 27.7125 28.4756 27.7125 27.8853V27.583C27.7125 25.9131 28.9362 25.0925 29.3968 24.7758C29.9295 24.4159 30.1022 24.1711 30.1022 23.7968C30.1022 23.077 29.512 22.4868 28.7922 22.4868C28.0724 22.4868 27.4821 23.077 27.4821 23.7968C27.4821 24.3871 26.9927 24.8765 26.4024 24.8765C25.8122 24.8765 25.3227 24.3871 25.3227 23.7968C25.3227 21.8821 26.8775 20.3273 28.7922 20.3273C30.7069 20.3273 32.2617 21.8821 32.2617 23.7968C32.2617 25.438 31.0524 26.2586 30.6061 26.5609Z" fill="#FF5202"/>
</svg>
