<svg width="58" height="58" viewBox="0 0 58 58" fill="none" xmlns="http://www.w3.org/2000/svg">
<rect x="0.71981" y="0.71981" width="56.1452" height="56.1452" rx="28.0726" stroke="#FF5202" stroke-width="1.43962"/>
<path d="M15.3286 34.85V24.3636H11.5168V22.7348H21.021V24.3636H17.2092V34.85H15.3286Z" fill="#FF5202"/>
<path d="M31.1884 34.85L25.1433 28.2341C24.7179 27.7751 24.3821 27.3749 24.1358 27.0335C23.8896 26.692 23.7132 26.3814 23.6069 26.1015C23.5005 25.8161 23.4474 25.5306 23.4474 25.2451V25.2283C23.4474 24.6966 23.5873 24.2236 23.8672 23.8094C24.147 23.3952 24.5304 23.0706 25.0174 22.8355C25.5044 22.6004 26.0557 22.4829 26.6714 22.4829C27.2927 22.4829 27.844 22.6004 28.3254 22.8355C28.8067 23.0706 29.1845 23.3952 29.4588 23.8094C29.7331 24.218 29.8702 24.6882 29.8702 25.2199V25.2367C29.8702 25.6453 29.7779 26.0316 29.5931 26.3954C29.414 26.7592 29.1202 27.1118 28.7116 27.4533C28.303 27.7947 27.76 28.1417 27.0828 28.4943L26.1508 27.5288C26.677 27.2601 27.0884 27.0111 27.385 26.7816C27.6873 26.5465 27.9028 26.3142 28.0315 26.0847C28.1603 25.8496 28.2246 25.595 28.2246 25.3207V25.3039C28.2246 25.0129 28.1575 24.7582 28.0231 24.5399C27.8944 24.3216 27.7153 24.1509 27.4858 24.0277C27.2563 23.9046 26.9876 23.843 26.6798 23.843C26.3831 23.843 26.1173 23.9046 25.8822 24.0277C25.6527 24.1509 25.4708 24.3244 25.3364 24.5483C25.2021 24.7666 25.1349 25.0212 25.1349 25.3123V25.3291C25.1349 25.5306 25.1797 25.7321 25.2693 25.9336C25.3588 26.1351 25.5044 26.3646 25.7059 26.6221C25.9074 26.8739 26.1844 27.1902 26.5371 27.5708L33.3881 34.8416V34.85H31.1884ZM26.2684 35.0767C25.4456 35.0767 24.7207 34.934 24.0939 34.6485C23.4726 34.3575 22.9884 33.9545 22.6414 33.4395C22.2943 32.919 22.1208 32.3229 22.1208 31.6512V31.6344C22.1208 30.9123 22.3139 30.2771 22.7001 29.7285C23.0919 29.18 23.6909 28.7014 24.4969 28.2928L25.1937 27.9402L26.1508 28.9897L25.5379 29.2919C25.0118 29.5494 24.6088 29.8657 24.3289 30.2407C24.0547 30.6157 23.9175 31.0327 23.9175 31.4917V31.5085C23.9175 31.9227 24.0239 32.2893 24.2366 32.6083C24.4493 32.9274 24.7459 33.1764 25.1265 33.3555C25.5072 33.5291 25.9465 33.6158 26.4447 33.6158C26.9261 33.6158 27.3626 33.5514 27.7545 33.4227C28.1463 33.294 28.4961 33.1093 28.8039 32.8686C29.1118 32.6279 29.3805 32.348 29.6099 32.029C29.9402 31.5532 30.1865 31.0047 30.3488 30.3834C30.5111 29.7621 30.5923 29.0932 30.5923 28.3768V28.0997H32.2462V28.444C32.2462 29.4067 32.1203 30.2939 31.8684 31.1055C31.6166 31.9171 31.2331 32.6251 30.7182 33.2296C30.22 33.8061 29.6015 34.2595 28.8627 34.5897C28.1239 34.9144 27.2591 35.0767 26.2684 35.0767Z" fill="#FF5202"/>
<path d="M40.0292 35.1439C38.9098 35.1439 37.9386 34.8864 37.1158 34.3714C36.2986 33.8565 35.669 33.1261 35.2268 32.1801C34.7846 31.2342 34.5635 30.1091 34.5635 28.805V28.7882C34.5635 27.4784 34.7846 26.3506 35.2268 25.4047C35.669 24.4587 36.2986 23.7283 37.1158 23.2133C37.933 22.6984 38.9042 22.4409 40.0292 22.4409C40.9192 22.4409 41.7224 22.6172 42.4388 22.9699C43.1609 23.3169 43.7514 23.7982 44.2104 24.4139C44.6749 25.0296 44.9576 25.7377 45.0583 26.5381V26.5885H43.1861L43.1777 26.5549C43.0657 26.0567 42.8614 25.6258 42.5648 25.2619C42.2681 24.8981 41.9043 24.6154 41.4733 24.4139C41.0423 24.2124 40.5609 24.1117 40.0292 24.1117C39.3072 24.1117 38.6803 24.302 38.1485 24.6826C37.6224 25.0632 37.2138 25.6034 36.9227 26.303C36.6373 26.9971 36.4946 27.8255 36.4946 28.7882V28.805C36.4946 29.7565 36.6373 30.5821 36.9227 31.2818C37.2138 31.9814 37.6224 32.5216 38.1485 32.9022C38.6803 33.2828 39.31 33.4731 40.0376 33.4731C40.5693 33.4731 41.0507 33.3835 41.4817 33.2044C41.9183 33.0253 42.2821 32.7706 42.5732 32.4404C42.8642 32.1046 43.0629 31.71 43.1693 31.2566L43.1861 31.223H45.0667L45.0583 31.265C44.9408 32.043 44.6553 32.7231 44.202 33.3052C43.7486 33.8873 43.1665 34.3407 42.4556 34.6653C41.7448 34.9843 40.936 35.1439 40.0292 35.1439Z" fill="#FF5202"/>
</svg>
