<svg width="596" height="596" viewBox="0 0 596 596" fill="none" xmlns="http://www.w3.org/2000/svg">
<path d="M595.741 0H0V595.742H595.741V0Z" fill="#FFDCCC"/>
<path d="M415.882 474.603C504.533 474.603 542.331 431.221 551.418 389.633C573.746 287.456 498.574 233.33 448.716 238.746C448.716 238.746 427.878 155.108 357.177 126.701C286.477 98.2953 227.686 119.134 227.686 119.134C227.686 119.134 179.58 38.0872 92.9826 81.1808C0.802315 127.052 43.6433 254.959 114.019 266.192C114.019 266.192 48.6666 402.896 162.362 474.603H415.882Z" fill="#FFEEE5"/>
<path d="M470.24 474.445C470.24 491.807 393.067 505.883 297.87 505.883C202.675 505.883 125.503 491.807 125.503 474.445C125.503 457.083 202.675 443.008 297.87 443.008C393.067 443.008 470.24 457.081 470.24 474.445Z" fill="#212250"/>
</svg>
